<?xml version="1.0" standalone="no"?><!DOCTYPE svg PUBLIC "-//W3C//DTD SVG 1.1//EN" "http://www.w3.org/Graphics/SVG/1.1/DTD/svg11.dtd"><svg xmlns:xlink="http://www.w3.org/1999/xlink" version="1.1" style="font-family:'lucida grande', 'lucida sans unicode', arial, helvetica, sans-serif;font-size:12px;" xmlns="http://www.w3.org/2000/svg" width="600" height="400"><desc>Created with Highcharts 4.2.0</desc><defs><radialGradient cx="0.5" cy="0.3" r="0.7" id="highcharts-143"><stop offset="0" stop-color="#bdc3bb" stop-opacity="1"></stop><stop offset="1" stop-color="rgb(113,119,111)" stop-opacity="1"></stop></radialGradient><radialGradient cx="0.5" cy="0.3" r="0.7" id="highcharts-144"><stop offset="0" stop-color="#9d9997" stop-opacity="1"></stop><stop offset="1" stop-color="rgb(81,77,75)" stop-opacity="1"></stop></radialGradient><clipPath id="highcharts-145"><rect x="0" y="0" width="600" height="400"></rect></clipPath><radialGradient cx="305" cy="111.39999999999999" r="201.6" id="highcharts-146" gradientUnits="userSpaceOnUse"><stop offset="0" stop-color="#bdc3bb" stop-opacity="1"></stop><stop offset="1" stop-color="rgb(113,119,111)" stop-opacity="1"></stop></radialGradient><radialGradient cx="0.5" cy="0.3" r="0.7" id="highcharts-147"><stop offset="0" stop-color="rgb(164,170,162)" stop-opacity="1"></stop><stop offset="1" stop-color="rgb(88,94,86)" stop-opacity="1"></stop></radialGradient><radialGradient cx="305" cy="111.39999999999999" r="201.6" id="highcharts-148" gradientUnits="userSpaceOnUse"><stop offset="0" stop-color="#9d9997" stop-opacity="1"></stop><stop offset="1" stop-color="rgb(81,77,75)" stop-opacity="1"></stop></radialGradient><radialGradient cx="0.5" cy="0.3" r="0.7" id="highcharts-149"><stop offset="0" stop-color="rgb(132,128,126)" stop-opacity="1"></stop><stop offset="1" stop-color="rgb(56,52,50)" stop-opacity="1"></stop></radialGradient></defs><g class="highcharts-series-group" ><g class="highcharts-series highcharts-series-0"  transform="translate(10,10) scale(1 1)"><path fill="url(#highcharts-147)" d="M 220.37347003596548 251.38431412060908 L 220.37347003596548 259.3392654089577 L 305 176.95495128834867 L 305 169 Z"  transform="translate(0,0)" visibility="visible"></path><path fill="url(#highcharts-149)" d="M 220.37230495005326 251.3837157165578 L 220.37230495005326 259.3386670049064 L 305 176.95495128834867 L 305 169 Z"  transform="translate(-7,-2)" visibility="visible"></path><path fill="url(#highcharts-149)" d="M 304.942546826129 67.17663161353182 L 304.942546826129 75.13158290188048 L 305 176.95495128834867 L 305 169 Z"  transform="translate(-7,-2)" visibility="visible"></path><path fill="url(#highcharts-147)" d="M 304.9706710586679 67.17662562109521 L 304.9706710586679 75.13157690944387 L 305 176.95495128834867 L 305 169 Z"  transform="translate(0,0)" visibility="visible"></path><path fill="url(#highcharts-149)" d="M 220.37230495005326 251.3837157165578 C 181.76018927887827 231.55179673941507 161 202.7454107786237 161 169 L 161 176.95495128834867 C 161 120.73373702527273 225.43374945052153 75.15401406297977 304.942546826129 75.13158290188048 L 304.942546826129 67.17663161353182 C 225.43374945052153 67.19906277463112 161 112.77878573692408 161 169 L 161 176.95495128834867 C 161 210.70036206697236 181.76018927887827 239.50674802776373 220.37230495005326 259.3386670049064 Z"  transform="translate(-7,-2)" visibility="visible"></path><path fill="url(#highcharts-149)" d="M 305 169 C 305 169 305 169 305 169 C 305 169 305 169 305 169 L 305 176.95495128834867 C 305 176.95495128834867 305 176.95495128834867 305 176.95495128834867 C 305 176.95495128834867 305 176.95495128834867 305 176.95495128834867 Z"  transform="translate(-7,-2)" visibility="visible"></path><path fill="url(#highcharts-147)" d="M 449 169 C 449 225.23549801218292 384.5290039756343 270.82337649086287 305 270.82337649086287 C 273.19471991271064 270.82337649086287 246.10681610743785 264.6011734562599 220.37347003596548 251.38431412060908 L 220.37347003596548 259.3392654089577 C 284.7196218826955 292.3879810865299 374.77107242593564 282.2945448082861 421.5090143561706 236.79494449420403 C 440.2004760806255 218.59872098444572 449 199.44468051560844 449 176.95495128834867 Z"  transform="translate(0,0)" visibility="visible"></path><path fill="url(#highcharts-147)" d="M 305 169 C 305 169 305 169 305 169 C 305 169 305 169 305 169 C 305 169 305 169 305 169 L 305 176.95495128834867 C 305 176.95495128834867 305 176.95495128834867 305 176.95495128834867 C 305 176.95495128834867 305 176.95495128834867 305 176.95495128834867 C 305 176.95495128834867 305 176.95495128834867 305 176.95495128834867 Z"  transform="translate(0,0)" visibility="visible"></path><g  stroke="url(#highcharts-146)" stroke-width="1" stroke-linejoin="round"><path fill="url(#highcharts-146)" d="M 304.9706710586679 67.17662562109521 C 384.4996733847603 67.16517195705367 448.9837990862139 112.74376446091838 448.99999701324026 168.97926130669904 C 449.01619494026664 225.2147581524797 384.5583312674245 270.8119207148632 305.0293289413321 270.82337437890476 C 273.2137375932546 270.82795641921615 246.1151593832395 264.6054586317036 220.37347003596548 251.38431412060908 L 305 169 C 305 169 305 169 305 169 C 305 169 305 169 305 169 C 305 169 305 169 305 169 Z"  transform="translate(0,0)" visibility="visible"></path></g><g  stroke="url(#highcharts-148)" stroke-width="1" stroke-linejoin="round"><path fill="url(#highcharts-148)" d="M 220.37230495005326 251.3837157165578 C 156.02662048595985 218.33454504463487 141.75324652553795 154.65845277864577 188.49183191495447 109.15918295399544 C 216.52652915563294 81.86785088696102 257.2395333036674 67.19008967121303 304.942546826129 67.17663161353182 L 305 169 C 305 169 305 169 305 169 C 305 169 305 169 305 169 Z"  transform="translate(-7,-2)" visibility="visible"></path></g></g><g class="highcharts-markers highcharts-series-0"  transform="translate(10,10) scale(1 1)"></g></g><g class="highcharts-data-labels highcharts-series-0"  visibility="visible" transform="translate(10,10) scale(1 1)" opacity="1"><path fill="none" d="M 479.1628953914834 209.74205226507436 C 474.1628953914834 209.74205226507436 462.87538170499545 207.26991631007476 452.4137600257488 203.87072937195035 L 441.9521383465021 200.47154243382593" stroke="url(#highcharts-143)" stroke-width="1"></path><path fill="none" d="M 130.83799982513577 128.25423093327063 C 135.83799982513577 128.25423093327063 147.1246182950045 130.7263668882702 157.58623997425119 134.12555382639462 L 168.04786165349788 137.52474076451904" stroke="url(#highcharts-144)" stroke-width="1"></path><g  style="cursor:pointer;" transform="translate(484,200)"><text x="5"  style="font-size:24px;font-weight:bold;font-family:'arial', sans-serif;color:#000;text-shadow:0 0 6px #ffffff, 0 0 3px #ffffff;fill:#000;text-rendering:geometricprecision;" y="28"><tspan>Coding</tspan></text></g><g  style="cursor:pointer;" transform="translate(0,118)"><text x="5"  style="font-size:24px;font-weight:bold;font-family:'arial', sans-serif;color:#000;text-shadow:0 0 6px #ffffff, 0 0 3px #ffffff;fill:#000;text-rendering:geometricprecision;" y="28"><tspan>Designing</tspan></text></g></g><g class="highcharts-legend"  transform="translate(211,360)"><g ><g><g class="highcharts-legend-item"  transform="translate(8,3)"><text x="21" style="color:#333;font-size:9pt;font-weight:normal;cursor:pointer;font-family:'lucida grande','lucida sans unicode',arial,helvetica,sans-serif;text-transform:none;fill:#333;" text-anchor="start"  y="15">Coding</text><rect x="0" y="4" width="16" height="12"  fill="url(#highcharts-143)"></rect></g><g class="highcharts-legend-item"  transform="translate(90.625,3)"><text x="21" y="15" style="color:#333;font-size:9pt;font-weight:normal;cursor:pointer;font-family:'lucida grande','lucida sans unicode',arial,helvetica,sans-serif;text-transform:none;fill:#333;" text-anchor="start" >Designing</text><rect x="0" y="4" width="16" height="12"  fill="url(#highcharts-144)"></rect></g></g></g></g><g class="highcharts-tooltip"  style="cursor:default;padding:0;pointer-events:none;white-space:nowrap;" transform="translate(0,-9999)"><path fill="none" d="M 3.5 0.5 L 13.5 0.5 C 16.5 0.5 16.5 0.5 16.5 3.5 L 16.5 13.5 C 16.5 16.5 16.5 16.5 13.5 16.5 L 3.5 16.5 C 0.5 16.5 0.5 16.5 0.5 13.5 L 0.5 3.5 C 0.5 0.5 0.5 0.5 3.5 0.5"  stroke="black" stroke-opacity="0.049999999999999996" stroke-width="5" transform="translate(1, 1)"></path><path fill="none" d="M 3.5 0.5 L 13.5 0.5 C 16.5 0.5 16.5 0.5 16.5 3.5 L 16.5 13.5 C 16.5 16.5 16.5 16.5 13.5 16.5 L 3.5 16.5 C 0.5 16.5 0.5 16.5 0.5 13.5 L 0.5 3.5 C 0.5 0.5 0.5 0.5 3.5 0.5"  stroke="black" stroke-opacity="0.09999999999999999" stroke-width="3" transform="translate(1, 1)"></path><path fill="none" d="M 3.5 0.5 L 13.5 0.5 C 16.5 0.5 16.5 0.5 16.5 3.5 L 16.5 13.5 C 16.5 16.5 16.5 16.5 13.5 16.5 L 3.5 16.5 C 0.5 16.5 0.5 16.5 0.5 13.5 L 0.5 3.5 C 0.5 0.5 0.5 0.5 3.5 0.5"  stroke="black" stroke-opacity="0.15" stroke-width="1" transform="translate(1, 1)"></path><path fill="rgb(255, 255, 255)" fill-opacity=" 0.85" d="M 3.5 0.5 L 13.5 0.5 C 16.5 0.5 16.5 0.5 16.5 3.5 L 16.5 13.5 C 16.5 16.5 16.5 16.5 13.5 16.5 L 3.5 16.5 C 0.5 16.5 0.5 16.5 0.5 13.5 L 0.5 3.5 C 0.5 0.5 0.5 0.5 3.5 0.5"></path><text x="8"  style="font-size:12px;color:#000000;fill:#000000;" y="20"></text></g><text x="590" text-anchor="end"  style="cursor:pointer;color:#666;font-size:9px;fill:#666;" y="395"></text></svg>